<?xml version="1.0" encoding="UTF-8"?>
<svg id="Layer_1" xmlns="http://www.w3.org/2000/svg" version="1.1" xmlns:xlink="http://www.w3.org/1999/xlink" viewBox="0 0 526.22 220.44">
  <!-- Generator: Adobe Illustrator 29.8.3, SVG Export Plug-In . SVG Version: 2.1.1 Build 3)  -->
  <defs>
    <style>
      .st0 {
        fill: url(#linear-gradient2);
      }

      .st1 {
        fill: url(#linear-gradient1);
      }

      .st2 {
        fill: url(#linear-gradient7);
      }

      .st3 {
        fill: #3978c3;
      }

      .st4 {
        fill: url(#linear-gradient4);
      }

      .st5 {
        fill: url(#linear-gradient5);
      }

      .st6 {
        fill: url(#linear-gradient3);
      }

      .st7 {
        fill: url(#linear-gradient6);
      }

      .st8 {
        fill: url(#linear-gradient);
      }
    </style>
    <linearGradient id="linear-gradient" x1="360.21" y1="149.25" x2="349.89" y2="234.75" gradientTransform="translate(0 266.67) scale(1 -1)" gradientUnits="userSpaceOnUse">
      <stop offset="0" stop-color="#4d5cb6"/>
      <stop offset="1" stop-color="#2295d1"/>
    </linearGradient>
    <linearGradient id="linear-gradient1" x1="176.46" y1="151.88" x2="173.88" y2="230.6" gradientTransform="translate(0 266.67) scale(1 -1)" gradientUnits="userSpaceOnUse">
      <stop offset="0" stop-color="#4569c0"/>
      <stop offset="1" stop-color="#149ed7"/>
    </linearGradient>
    <linearGradient id="linear-gradient2" x1="66.52" y1="151.29" x2="56.2" y2="229.43" gradientTransform="translate(0 266.67) scale(1 -1)" gradientUnits="userSpaceOnUse">
      <stop offset="0" stop-color="#456bbc"/>
      <stop offset="1" stop-color="#12a4df"/>
    </linearGradient>
    <linearGradient id="linear-gradient3" x1="138.45" y1="215" x2="128.01" y2="129.93" gradientUnits="userSpaceOnUse">
      <stop offset="0" stop-color="#7b3cb1"/>
      <stop offset="1" stop-color="#3f72bd"/>
    </linearGradient>
    <linearGradient id="linear-gradient4" x1="202.42" y1="211.06" x2="192.77" y2="132.52" xlink:href="#linear-gradient3"/>
    <linearGradient id="linear-gradient5" x1="361.07" y1="209.13" x2="341.71" y2="48.73" gradientUnits="userSpaceOnUse">
      <stop offset="0" stop-color="#7b3cb1"/>
      <stop offset="1" stop-color="#3780c3"/>
    </linearGradient>
    <linearGradient id="linear-gradient6" x1="268.82" y1="183.15" x2="273.25" y2="158.02" xlink:href="#linear-gradient3"/>
    <linearGradient id="linear-gradient7" x1="489.52" y1="260.14" x2="481.15" y2="219.71" gradientTransform="translate(0 266.67) scale(1 -1)" gradientUnits="userSpaceOnUse">
      <stop offset="0" stop-color="#15a2db"/>
      <stop offset="1" stop-color="#5f5baf"/>
    </linearGradient>
  </defs>
  <path class="st8" d="M303.31,37.09c14.86-.8,35.49-.21,50.74-.21l94.91-.03c-1.79,6.2-3.05,10.68-4.43,17-12.72.33-26.93-.01-39.77-.04-.81,7.63-3.21,16.08-4.99,23.6-2.98,12.53-6.35,25.18-8.68,37.85l-17.86.06,7.54-33.92,5.83-27.21c-28.49-.87-57.76-.15-86.3-.27-3.54-.01-7.81,2.6-8.75,6.18-4.8,18.26-8.67,36.93-12.95,55.38l-17.11.04c1.71-11.7,4.89-23.29,7.47-34.79,5.13-22.86,6.66-41.16,34.34-43.64Z"/>
  <path class="st1" d="M168.89,37.17c5.75-.39,11.53-.24,17.29-.19-1,8.62-4.31,20.19-6.53,28.82-2.8,10.96-5.4,21.98-7.78,33.04,19.28.28,22.74,3.19,28.77-16.69,1.47-4.86,3.96-11.31,5.8-16.17,2.98-8.93,7.38-19.81,10.94-28.49,5-.28,11.8-.1,16.95-.09-1.79,7.3-6.36,19.93-9.51,27.39-6.59,15.58-12.31,47.69-32.52,50.24-15.43,1.95-32.79.14-48.5.82-9.75.42-21.4.54-26.5-9.8-3.84-9.15-.93-27.82-.35-38.06.4-7.09.55-24.55,2.28-30.41l1.35-.57c5.54-.1,10.07-.12,15.61.42-.45,10.83-1.13,21.66-2.05,32.46-.39,5.1-2.48,24.97.17,28.22,3.46,1.51,15.25.86,19.75.89l14.82-61.84Z"/>
  <path class="st0" d="M56.28,37.06c17.3-.47,34.96,0,52.26.35-1.61,5.62-2.48,10.83-4.46,16.54-18.73.05-38.21-.35-56.86.09-1.09.67-2.12,1.36-3.03,2.28-1.68,1.69-3.16,4.28-2.89,6.76,1.2,10.94,39.42-1.55,52.13,9.6,4.04,3.55,5.93,9.02,6.06,14.3.2,7.57-3.36,14.6-8.54,19.93-7.1,7.3-14.69,8.68-24.52,8.83l-52.19.07c1.62-5.26,3.06-11.36,4.38-16.73,13.29-.69,26.91-.23,40.24-.17,4.22.02,8.48.32,12.69.08,3.4-.19,6.26-.93,8.51-3.63,1.39-1.66,2.46-3.84,2.12-6.06-1.76-11.34-39.32,1.73-52.17-9.15-3.78-3.2-5.45-7.76-5.87-12.59-.64-7.32,1.35-14.63,6.26-20.22,7-7.96,15.83-9.63,25.88-10.26Z"/>
  <path class="st6" d="M112.82,131.8c5.67-.07,11.56.04,17.25.07-2.5,12.22-5.22,24.38-8.16,36.5-1.4,5.93-6.48,20.83-2.67,25.66,3.55,2.21,43.6.51,51.55,1.33l.94.1c-1.2,5.08-2.45,10.14-3.75,15.19-.13.33.01.09-.8.82-2.6.39-10.55.29-13.92.07-12.9-1.03-31.32,2.66-43.3-2.45-16.03-6.85-8.05-28.62-5.36-40.43l8.23-36.86Z"/>
  <path class="st4" d="M198.13,131.86c5.69-.02,11.37.01,17.06.09-3.39,18.4-8.76,37.22-12.39,55.66-1.47,7.5-3.41,16.84-5.66,24.09l-17.13-.09c.74-6.37,4.58-20.76,6.18-27.69,3.99-17.25,7.74-34.9,11.94-52.07Z"/>
  <path class="st3" d="M247.16,36.98c5.59-.11,11.38-.05,16.98-.07-3.08,16.73-8.1,33.81-11.42,50.58-.63,3.2-5.48,26.33-6.51,28.11-5.7.04-11.39.12-17.09.23.72-6.14,16.34-75.74,18.03-78.85Z"/>
  <path class="st5" d="M488.18,32.88l-12.4-.34c-2.61,2.86-11.54,14.05-14.01,17.11-3.53,4.37-20.11,23.43-22.01,27.18-3.02,2.82-7.88,9.23-10.63,12.66l-21.61,26.84c-3.3,4.05-9.48,11.89-13.2,15.26-12.72.42-26.53.17-39.38.18l-65.04.09c-10.04.01-34.64-.71-42.7.9-5.92,1.21-11.31,4.24-15.43,8.65-10.19,10.98-11.55,39.61-16,54.04-1.11,3.61-2.84,12.14-3.4,15.99l16.93.05,7.95-35.36c1.54-6.86,2.86-13.92,5.26-20.52,1.44-3.94,4.59-6.93,8.95-7.11,9.11-.37,18.34-.18,27.47-.15l57.54.34c-5.16,20.53-9.61,41.76-14.84,62.64,6.12.05,12.24.17,18.36.35,2.23-14.53,7.03-30.29,10.15-44.71,1.23-5.68,3.23-12.64,3.93-18.3,15.15.04,32.88.52,47.83,0,15.89-17.42,30.27-37.68,45.74-55.57,1.72-1.99,9.01-10.5,9.93-12.38,4.18-4.01,12.08-14.24,16.17-19.03,4.9-5.76,11.94-13.31,16.2-19.09-.74-3.46-1.27-6.23-1.75-9.73Z"/>
  <path class="st7" d="M247.08,162.37h50.82c-1.24,5.43-2.36,10.88-3.36,16.35-2.45.52-13.32.3-16.41.28l-33.94-.19,2.88-16.44Z"/>
  <path class="st3" d="M296.72,67.48c7.1-.29,16.23.01,23.54-.04,7.96-.06,19.1-.32,26.67.41-.92,5.41-1.96,10.8-3.12,16.17l-50.67-.21c.63-4.59,1.95-12.04,3.57-16.33Z"/>
  <path class="st2" d="M509,8.94l.32.23c.49,3.07-7.77,37.65-8.16,45.24-2.58-6.21-5.96-21.02-7.56-28.01-7.84-.97-21.05-1.24-29.42-1.68,12.4-5.19,32.13-11.6,44.81-15.77Z"/>
</svg>